<svg aria-label="Closed padlock" class="continue-hint__icon" fill="none" focusable="false" role="img" viewBox="0 0 40 40" xmlns="http://www.w3.org/2000/svg"><path fill-rule="evenodd" clip-rule="evenodd" d="M24 23C24 24.5064 23.1673 25.8183 21.9371 26.5005C21.9782 26.6602 22 26.8275 22 27V30C22 31.1046 21.1046 32 20 32C18.8954 32 18 31.1046 18 30V27C18 26.8275 18.0218 26.6602 18.0629 26.5005C16.8327 25.8183 16 24.5064 16 23C16 20.7909 17.7909 19 20 19C22.2091 19 24 20.7909 24 23ZM20 25C21.1046 25 22 24.1046 22 23C22 21.8954 21.1046 21 20 21C18.8954 21 18 21.8954 18 23C18 24.1046 18.8954 25 20 25Z" fill="#313537"></path><path fill-rule="evenodd" clip-rule="evenodd" d="M12 10V13C8.68629 13 6 15.6863 6 19V32C6 35.3137 8.68629 38 12 38H28C31.3137 38 34 35.3137 34 32V19C34 15.6863 31.3137 13 28 13V10C28 5.58172 24.4183 2 20 2C15.5817 2 12 5.58172 12 10ZM20 4C16.6863 4 14 6.68629 14 10V13H26V10C26 6.68629 23.3137 4 20 4ZM8 19C8 16.7909 9.79086 15 12 15H28C30.2091 15 32 16.7909 32 19V32C32 34.2091 30.2091 36 28 36H12C9.79086 36 8 34.2091 8 32V19Z" fill="#313537"></path></svg>